<svg xmlns="http://www.w3.org/2000/svg" xmlns:xlink="http://www.w3.org/1999/xlink" viewBox="0 0 620 350" xmlns:v="https://vecta.io/nano">
<style><![CDATA[.B{font-family:sans-serif}.C{fill:#000}.D{word-spacing:0px}.E{font-size:3.32px}.F{fill-rule:evenodd}.G{fill-opacity:.64}.H{filter:url(#A)}.I{fill:gray}.J{stroke:#806600}.K{font-size:40px}.L{stroke-width:6}.M{font-size:7.739px}.N{stroke-width:4.426}.O{stroke-width:1.66}.P{font-size:7.746px}.Q{font-size:11.066px}.R{fill:#e9ddaf}.S{stroke-width:5.819}]]></style>
<defs>
<filter id="A" color-interpolation-filters="sRGB"><feGaussianBlur stdDeviation="3.804"/></filter>
<path id="B" d="M404.547 170.453v3.117q-1.358-.542-2.651-.819-1.292-.276-2.441-.276-1.524 0-2.253.375-.729.375-.729 1.164 0 .592.486.927.497.325 1.789.562l1.811.325q2.75.493 3.91 1.499 1.16 1.006 1.16 2.86 0 2.436-1.623 3.63-1.612 1.184-4.937 1.184-1.568 0-3.148-.266-1.579-.266-3.159-.789v-3.205q1.579.75 3.048 1.134 1.48.375 2.849.375 1.392 0 2.132-.414.74-.414.74-1.184 0-.69-.508-1.065-.497-.375-1.999-.671l-1.646-.325q-2.474-.473-3.622-1.509-1.138-1.036-1.138-2.791 0-2.199 1.59-3.383 1.59-1.184 4.572-1.184 1.358 0 2.794.187 1.436.178 2.971.542z"/>
<path id="C" d="M1071.781 146.186v.008l-179.953.375 33.977 360.879 146.867 40.932v.428l.766-.213.766.213v-.428l146.867-40.932 33.977-360.879-179.951-.375v-.008l-1.658.004z"/>
<path id="D" d="M1073.558 177.01v342.492l120.242-34.732 27.928-307.434-147.916-.32v-.006h-.254z"/>
<path id="E" d="M370.085 51.799h5.412l3.755 7.881 3.777-7.881h5.401v14.726h-4.02v-10.77l-3.799 7.94h-2.695l-3.799-7.94v10.77h-4.031z"/>
</defs>
<g transform="matrix(.225398 0 0 .206461 373.81433 51.544189)" class="F"><g fill="#333">
<path d="M179.953 677.745v.008L0 678.128l33.977 360.879 146.867 40.932v.428l.766-.213.766.213v-.428l146.867-40.932 33.977-360.879-179.951-.375v-.008l-1.658.004z"/>
<path d="M179.26 708.569v.006l-147.918.32 27.928 307.434 120.723 34.871v.363l.629-.182.199.057V708.573h-.199l-1.361-.004z"/></g>
<path d="M181.73 708.569v342.492l120.242-34.732L329.9 708.895l-147.916-.32v-.006h-.254z" fill="#666"/></g>
<path d="M410.209 250.357h26.048v10.277H393.24v-10.277l21.608-17.468q2.894-2.397 4.282-4.685 1.388-2.288 1.388-4.757 0-3.813-2.815-6.137-2.775-2.324-7.414-2.324-3.568 0-7.81 1.416-4.242 1.38-9.079 4.14V208.63q5.154-1.562 10.189-2.361 5.035-.835 9.872-.835 10.625 0 16.493 4.285 5.907 4.285 5.907 11.948 0 4.431-2.498 8.28-2.498 3.813-10.506 10.241z" fill="#fff"/><use xlink:href="#B"/>
<path d="M407.407 169.99h4.274l4.373 10.869 4.362-10.869h4.274l-6.107 14.726h-5.069zm34.281 13.631q-1.59.69-3.302 1.036-1.712.345-3.534.345-4.119 0-6.527-2.052-2.408-2.061-2.408-5.582 0-3.561 2.452-5.602 2.452-2.042 6.715-2.042 1.646 0 3.148.276 1.513.276 2.849.819v3.048q-1.381-.7-2.75-1.045-1.358-.345-2.728-.345-2.54 0-3.921 1.272-1.369 1.262-1.369 3.62 0 2.338 1.325 3.61 1.325 1.272 3.766 1.272.663 0 1.226-.069.574-.079 1.027-.237v-2.86h-2.595v-2.545h6.627z"/>
<g transform="matrix(.225398 0 0 .206461 320.24006 43.403111)" class="F"><g fill="#fc0"><use xlink:href="#C"/>
<path d="M1071.088 177.01v.006l-147.918.32 27.928 307.434 120.723 34.871v.363l.629-.182.199.057V177.014h-.199l-1.361-.004z"/></g><use xlink:href="#D" fill="#fd5"/></g>
<path d="M562.983 115.42q-4.004 0-6.026 2.397-1.982 2.361-1.982 7.118 0 4.757 1.982 7.154 2.022 2.361 6.026 2.361 4.044 0 6.026-2.361 2.022-2.397 2.022-7.154 0-4.757-2.022-7.118-1.982-2.397-6.026-2.397zm18.872-26.039v10.023q-3.766-1.634-7.097-2.397-3.33-.799-6.502-.799-6.819 0-10.625 3.486-3.806 3.45-4.44 10.277 2.617-1.779 5.67-2.651 3.053-.908 6.661-.908 9.079 0 14.63 4.866 5.59 4.866 5.59 12.747 0 8.716-6.225 13.982-6.225 5.23-16.691 5.23-11.537 0-17.881-7.118-6.304-7.154-6.304-20.264 0-13.437 7.374-21.1 7.414-7.699 20.299-7.699 4.084 0 7.929.581 3.846.581 7.612 1.743z" fill="#fff"/>
<path d="M550.385 52.102h4.252v13.295q0 2.752-1.679 4.113-1.668 1.361-5.058 1.361h-.861v-2.87h.663q1.325 0 1.999-.661.685-.661.685-1.943z"/><use xlink:href="#B" x="165.751" y="-117.887"/>
<path d="M456.258 66.019q-1.171.542-2.441.819-1.27.276-2.651.276-4.119 0-6.527-2.052-2.408-2.061-2.408-5.582 0-3.531 2.408-5.582 2.408-2.061 6.527-2.061 1.381 0 2.651.276 1.27.276 2.441.819v3.048q-1.182-.72-2.33-1.055-1.149-.335-2.419-.335-2.275 0-3.578 1.302-1.303 1.302-1.303 3.59 0 2.278 1.303 3.58 1.303 1.302 3.578 1.302 1.27 0 2.419-.335 1.149-.335 2.33-1.055z"/><use xlink:href="#B" x="67.162" y="-117.887"/><use xlink:href="#B" x="82.447" y="-117.887"/><g transform="matrix(.225398 0 0 .206461 307.50752 -53.793619)" class="F"><g fill="#0070bb"><use xlink:href="#C" x="-378.584" y="470.774"/>
<path d="M692.504 647.784v.006l-147.918.32 27.928 307.434 120.723 34.871v.363l.629-.182.199.057V647.789h-.199l-1.361-.004z"/></g><use xlink:href="#D" x="-378.583" y="470.774" fill="#28aae1"/></g>
<path d="M474.216 112.987q5.987 1.416 9.079 4.939 3.132 3.486 3.132 8.897 0 8.062-6.74 12.275-6.74 4.176-19.665 4.176-4.559 0-9.158-.69-4.559-.654-9.04-1.997v-10.786q4.282 1.961 8.484 2.978 4.242.981 8.326.981 6.066 0 9.277-1.925 3.251-1.925 3.251-5.52 0-3.704-3.33-5.593-3.291-1.925-9.753-1.925h-6.106v-9.006h6.423q5.749 0 8.564-1.634 2.815-1.671 2.815-5.048 0-3.123-2.736-4.83-2.736-1.707-7.731-1.707-3.687 0-7.454.763-3.766.763-7.493 2.252V89.345q4.52-1.162 8.96-1.743 4.44-.581 8.722-.581 11.537 0 17.246 3.486 5.749 3.45 5.749 10.423 0 4.757-2.736 7.808-2.736 3.014-8.088 4.249z" fill="#fff"/>
<path d="M335.716 51.799h4.252v5.612h6.273v-5.612h4.252v14.726h-4.252v-6.243h-6.273v6.243h-4.252zm16.986 0h15.197v2.87h-5.467v11.855h-4.252V54.67h-5.478z"/><use xlink:href="#E"/>
<path d="M392.615 51.799h4.252v11.855h7.466v2.87h-11.718z"/><g transform="matrix(.225398 0 0 .206461 320.24006 43.403111)" class="F"><g fill="#e44d26"><use xlink:href="#C" x="-870.146"/>
<path d="M200.942 177.01v.006l-147.918.32L80.952 484.77l120.723 34.871v.363l.629-.182.199.057V177.014h-.199l-1.361-.004z"/></g><use xlink:href="#D" x="-870.145" fill="#f16529"/></g>
<path d="M346.119 87.511h37.942v10.277h-25.771v8.389q1.744-.436 3.489-.654 1.784-.254 3.687-.254 10.824 0 16.85 4.975 6.026 4.939 6.026 13.8 0 8.788-6.581 13.764-6.542 4.975-18.198 4.975-5.035 0-9.991-.908-4.916-.872-9.793-2.687v-11.004q4.837 2.542 9.158 3.813 4.361 1.271 8.207 1.271 5.551 0 8.722-2.469 3.211-2.506 3.211-6.755 0-4.285-3.211-6.755-3.172-2.469-8.722-2.469-3.291 0-7.018.799-3.727.763-8.009 2.397z" fill="#fff"/>
<path d="M499.942 176.897l5.721 7.516h-4.429l-3.854-5.03-3.821 5.03h-4.451l5.721-7.516-5.5-7.21h4.44l3.611 4.744 3.6-4.744h4.462z"/><use xlink:href="#E" x="138.118" y="117.888"/>
<path d="M530.733 169.687h4.252v11.855h7.466v2.87h-11.718z"/><g transform="matrix(.225398 0 0 .206461 373.81433 51.544189)" class="F"><g fill="#484537"><use xlink:href="#C" x="-456.755" y="530.091"/>
<path d="M614.333 707.101v.006l-147.918.32 27.928 307.434 120.723 34.871v.363l.629-.182.199.057V707.106h-.199l-1.361-.004z"/></g>
<path d="M616.803 707.101v342.492l120.242-34.732 27.928-307.434-147.916-.32v-.01h-.254z" fill="#aca793"/></g>
<path d="M492.296 250.182h13.48v-35.045l-13.837 2.615v-9.515l13.758-2.615h14.511v44.56h13.48v9.66h-41.391z" fill="#fff"/><g fill="none" stroke="#000" class="N">
<path d="M193.91 283.169h-55.771m55.771-78.078h-55.771m-22.238-38.298H90.815m24.902-88.042H90.632"/>
<path d="M193.91 119.767h-55.771m90.262 169.677v33.041m42.453-37.949h-32.523m-98.073-101.494v113.92"/>
<path d="M228.401 210.807v33.041m2.278-117.887v33.041m-90.242-62.491v33.041M89.642 46.953v145.355"/></g><g transform="matrix(.274477 0 0 .278852 13.837106 -77.108018)" class="I G H"><rect ry="27.695" height="114.29" width="282.86" y="373.69" x="153.02"/><rect ry="27.695" height="114.29" width="282.86" y="512.12" x="321.89"/></g><rect ry="7.723" height="31.87" width="77.638" y="63.269" x="100.064" fill="#acf" stroke="#04a" class="O"/>
<text xml:space="preserve" y="72.435" x="122.261" transform="scale(.99212255 1.00794)" letter-spacing="0" class="B C D E"><tspan x="122.261" y="72.435" class="P">Element:</tspan></text>
<text y="89.575" x="117.173" xml:space="preserve" transform="scale(.99212255 1.00794)" letter-spacing="0" class="B C D E"><tspan y="89.575" x="117.173" class="Q">&lt;head&gt;</tspan></text><rect ry="27.695" height="114.29" width="282.86" y="828.12" x="323.89" transform="matrix(.274477 0 0 .278852 13.837106 -77.108018)" class="G H I"/><rect ry="7.723" height="31.87" width="77.638" y="151.387" x="100.613" fill="#acf" stroke="#04a" class="O"/>
<text y="159.858" x="122.814" xml:space="preserve" transform="scale(.99212255 1.00794)" letter-spacing="0" class="B C D E"><tspan y="159.858" x="122.814" class="P">Element:</tspan></text>
<text xml:space="preserve" y="176.998" x="117.726" transform="scale(.99212255 1.00794)" letter-spacing="0" class="B C D E"><tspan x="117.726" y="176.998" class="Q">&lt;body&gt;</tspan></text><g transform="matrix(.274477 0 0 .278852 77.235684 -73.863014)"><g transform="matrix(.94123 0 0 1 326.2 411.41)"><rect ry="27.695" height="114.29" width="282.86" y="238.17" x="61.062" class="G H I"/><rect ry="27.695" height="114.29" width="282.86" y="229.46" x="53.318" fill="#fd5" class="J L"/></g>
<text xml:space="preserve" y="675.801" x="439.93" letter-spacing="0" class="B C D"><tspan x="439.93" y="675.801" font-size="28">Element:</tspan></text>
<text y="737.755" x="431.538" xml:space="preserve" letter-spacing="0" class="B C D"><tspan y="737.755" x="431.538" class="K">&lt;title&gt;</tspan></text></g><g transform="matrix(.274477 0 0 .278852 88.036324 -73.863014)"><rect ry="27.695" height="114.29" width="282.86" y="789.58" x="448.31" class="G H I"/><rect ry="27.695" height="114.29" width="282.86" y="780.87" x="440.56" class="J L R"/>
<text y="815.801" x="545.93" xml:space="preserve" letter-spacing="0" class="B C D"><tspan y="815.801" x="545.93" font-size="28">Text:</tspan></text>
<text xml:space="preserve" y="877.755" x="479.538" letter-spacing="0" class="B C D"><tspan x="479.538" y="877.755" class="K">"My title"</tspan></text></g><g transform="matrix(.274477 0 0 .278852 80.178074 -102.76244)"><g transform="matrix(.94124 0 0 .99819 314.2 821.29)"><rect ry="27.695" height="114.29" width="282.86" y="238.17" x="61.062" class="G H I"/><rect ry="27.695" height="114.29" width="282.86" y="229.46" x="53.318" fill="#fd5" class="J L"/></g>
<text transform="scale(1.0009 .99909)" y="1086.181" x="433.537" xml:space="preserve" letter-spacing="0" class="B C D"><tspan y="1086.181" x="433.537" font-size="27.975">Element:</tspan></text>
<text xml:space="preserve" transform="scale(1.0009 .99909)" y="1148.078" x="434.823" letter-spacing="0" class="B C D"><tspan x="434.823" y="1148.078" font-size="39.964">&lt;h1&gt;</tspan></text></g><g transform="matrix(.274477 0 0 .278852 71.102154 -98.351259)"><rect ry="27.695" transform="matrix(.94106 0 0 .99955 442.3 960.63)" height="114.29" width="282.86" y="238.17" x="61.062" class="G H I"/><rect ry="27.683" height="114.23" width="266.19" y="1190" x="492.47" class="J R S"/></g>
<text xml:space="preserve" transform="scale(.99302084 1.0070282)" y="241.528" x="228.522" letter-spacing="0" class="B C D E"><tspan x="228.522" y="241.528" class="M">Text:</tspan></text>
<text transform="scale(.88498998 1.1299563)" y="228.709" x="239.307" xml:space="preserve" font-size="2.819" letter-spacing="0" class="B C D"><tspan y="228.709" x="239.307" font-size="9.389">"A heading"</tspan></text><g transform="matrix(.262935 0 0 .278348 166.18253 204.533)"><rect ry="27.695" height="114.29" width="282.86" y="238.17" x="61.062" class="G H I"/><rect ry="27.695" height="114.29" width="282.86" y="229.46" x="53.318" fill="#fd5" class="J L"/></g>
<text xml:space="preserve" transform="scale(.99302084 1.0070282)" y="277.682" x="195.808" letter-spacing="0" class="B C D E"><tspan x="195.808" y="277.682" class="M">Element:</tspan></text>
<text transform="scale(.99302084 1.0070282)" xml:space="preserve" y="292.026" x="197.247" letter-spacing="0" class="B C D E"><tspan y="292.026" x="197.247" font-size="11.056">&lt;a&gt;</tspan></text>
<path d="M4.362 4.244h51.173v335.934H4.362z" fill="#e6e6e6"/><g transform="matrix(.274477 0 0 .278852 90.130584 -102.76244)"><rect ry="27.695" transform="matrix(.94085 0 0 .99955 390.31 1241.4)" height="114.29" width="282.86" y="238.17" x="61.062" class="G H I"/><rect ry="27.683" height="114.23" width="266.13" y="1470.7" x="440.47" class="J R S"/></g>
<text transform="scale(.99302084 1.0070282)" xml:space="preserve" y="317.875" x="233.311" letter-spacing="0" class="B C D E"><tspan y="317.875" x="233.311" class="M">Text:</tspan></text>
<text xml:space="preserve" transform="scale(.89757099 1.114118)" y="300.1" x="244.764" font-size="2.876" letter-spacing="0" class="B C D"><tspan x="244.764" y="300.1" font-size="9.577">"Link text"</tspan></text>
<text transform="matrix(0 -.852806 1.172599 0 0 0)" xml:space="preserve" y="33.697" x="-239.431" font-size="38.356" letter-spacing="0" class="B C D">C2020 </text>
<text transform="matrix(0 -1.00794 .992123 0 0 0)" xml:space="preserve" y="52.637" x="-212.024" letter-spacing="0" class="B C D E"><tspan font-size="9.429" font-family="American Typewriter">CURSOS 2020 LTDA</tspan></text>
<path d="M40.439 8.483v33.041" fill="none" stroke="#000" class="N"/><rect ry="27.695" transform="matrix(.274477 0 0 .278348 246.38732 204.533)" height="114.29" width="282.86" y="238.17" x="61.062" class="G H I"/><rect ry="7.709" height="31.811" width="77.638" y="268.418" x="261.02" fill="#e2dbe3" stroke-width="1.658" class="J"/>
<text xml:space="preserve" transform="scale(.99302084 1.0070282)" y="276.186" x="278.264" letter-spacing="0" class="B C D E"><tspan x="278.264" y="276.186" class="M">Attribut:</tspan></text>
<text transform="scale(.99302084 1.0070282)" xml:space="preserve" y="291.278" x="283.436" letter-spacing="0" class="B C D E"><tspan y="291.278" x="283.436" font-size="11.056">href</tspan></text>
<path d="M72.018 39.614H39.495" fill="none" stroke="#000" class="N"/><rect ry="7.723" height="31.87" width="77.638" y="24.668" x="53.713" fill="#e5d5ff" stroke="#40a" class="O"/>
<text y="34.138" x="65.634" xml:space="preserve" transform="scale(.99212255 1.00794)" letter-spacing="0" class="B C D E"><tspan y="34.138" x="65.634" class="P">Root element:</tspan></text>
<text xml:space="preserve" y="51.278" x="70.455" transform="scale(.99212255 1.00794)" letter-spacing="0" class="B C D E"><tspan x="70.455" y="51.278" class="Q">&lt;html&gt;</tspan></text>
</svg>