<svg xmlns="http://www.w3.org/2000/svg" height="661.333" viewBox="0 0 496 496" width="661.333" xmlns:v="https://vecta.io/nano"><path d="M488 248c0 132.547-107.453 240-240 240S8 380.547 8 248 115.453 8 248 8s240 107.453 240 240zm0 0" fill="#85d3c1"/><g fill="#f9d48a"><path d="M169.039 474.641C154.719 483.121 137.922 488 120 488c-53.039 0-96-42.961-96-96 0-13.84 2.879-26.961 8.16-38.879C47.039 319.52 80.801 296 120 296c53.039 0 96 42.961 96 96 0 17.52-4.641 33.922-12.801 48-8.238 14.238-20.078 26.16-34.16 34.641zM40 104V40h327.602c2.879 1.52 5.68 3.281 8.398 5.121V104zm0 0"/><path d="M120 264v-48h336v64H120zm0 0"/></g><path d="M40 104v160h80v-32H72v-96h80v80h224V104zm416 176v87.602c-16.16 28.32-38.078 52.957-64 72.398H203.199c8.16-14.078 12.801-30.48 12.801-48 0-53.039-42.961-96-96-96v-16zm0 0" fill="#f5f7fa"/><path d="M416 360c0 26.508-21.492 48-48 48s-48-21.492-48-48 21.492-48 48-48 48 21.492 48 48zM152 168v48h-32v16H72v-96h80zm0 0" fill="#ff958a"/><g fill="#232323"><path d="M248 0c-42.625 0-84.625 11.098-121.664 32H32v94.336C11.098 163.367 0 205.367 0 248c0 36.832 7.969 72.23 23.535 105.336C18.719 365.305 16 378.328 16 392c0 57.344 46.656 104 104 104a103.33 103.33 0 0 0 49.855-12.77C195.105 491.625 221.352 496 248 496c136.754 0 248-111.258 248-248S384.754 0 248 0zm232 248c0 29.809-5.711 58.289-16 84.496V208h-80V60.215c58.113 42.199 96 110.633 96 187.785zM48 112h320v96H160v-80H64v112h48v16H48zm64 96v16H80v-80h64v64zm16 16h320v48H128zM248 16c29.809 0 58.289 5.711 84.496 16h-168.84C190.441 21.535 219.047 16 248 16zm117.367 32L368 49.512V96H48V48zM16 248c0-28.953 5.535-57.566 16-84.352V272h80v16.406c-33.031 2.539-61.777 20.504-78.992 46.762C21.754 307.512 16 278.273 16 248zm16 144c0-48.52 39.48-88 88-88s88 39.48 88 88-39.48 88-88 88-88-39.48-88-88zm154.742 79.648c8.066-6.77 15.043-14.762 20.754-23.648h157.871A230.44 230.44 0 0 1 248 480c-20.785 0-41.305-2.887-61.258-8.352zM389.07 432H215.977A103.45 103.45 0 0 0 224 392c0-54.648-42.391-99.48-96-103.594V288h320v77.367c-15.215 25.824-35.273 48.449-58.93 66.633zM96.234 454.066l32.031-127.992 15.516 3.883-32.035 127.992zm0 0"/><path d="M158.246 347l-12.492 10 28.008 35-28.008 35 12.492 10 35.992-45zm-76.492 0l-35.992 45 35.992 45 12.492-10-28.008-35 28.008-35zM64 64h16v16H64zm32 0h16v16H96zm0 0"/><path d="M128 64h16v16h-16zm16 176h16v16h-16zm32 0h16v16h-16zm32 0h16v16h-16zm0 0"/><path d="M176 128h16v16h-16zm32 0h144v16H208zm-32 32h16v16h-16zm32 0h144v16H208zm160 144c-30.871 0-56 25.121-56 56s25.129 56 56 56 56-25.121 56-56-25.129-56-56-56zm0 96c-22.055 0-40-17.945-40-40s17.945-40 40-40 40 17.945 40 40-17.945 40-40 40zm-128 0h56v16h-56zm0 0"/><path d="M240 368h56v16h-56zm0-32h56v16h-56zm-32-32h88v16h-88zm0 0"/></g></svg>